# xmcd
#
# Track frame offsets: 
#        150
#        5319
#        15568
#        27009
#        48071
#        50158
#        55669
#        63011
#        74597
#        84476
#        97173
#        111199
#        117863
#        136928
#        148875
#        151000
#        169668
#        180785
#        254550
#
# Disc length: 3590 seconds
#
# Revision: 0
# Processed by: cddbd v1.5.2PL0 Copyright (c) Steve Scherf et al.
# Submitted via: ExactAudioCopy v0.95b3
#
DISCID=f30e0413
DTITLE=John Lennon  - Life Is What Happens - Disc 2
DYEAR=1900
DGENRE=
TTITLE0=Untitled Instumental
TTITLE1=Illusion
TTITLE2=Knocking On Heaven's Door
TTITLE3=News Of The Day
TTITLE4=Maggie Mae
TTITLE5=Be Bop A Lula ?
TTITLE6=You Saved My Soul
TTITLE7=You Saved My Soul
TTITLE8=Life Begins At 40
TTITLE9=Grow Old With Me
TTITLE10=Grow Old With Me
TTITLE11=Audio Verite'
TTITLE12=Dear John
TTITLE13=She's A Friend Of Dorthy's
TTITLE14=She's A Friend Of Dorthy's
TTITLE15=Serve Yourself
TTITLE16=Audio Verite'
TTITLE17=Audio Verite'
TTITLE18=Audio Verite'
EXTD=
EXTT0=
EXTT1=
EXTT2=
EXTT3=
EXTT4=
EXTT5=
EXTT6=
EXTT7=
EXTT8=
EXTT9=
EXTT10=
EXTT11=
EXTT12=
EXTT13=
EXTT14=
EXTT15=
EXTT16=
EXTT17=
EXTT18=
PLAYORDER=
